<svg viewBox="0 0 532 608" fill="none" xmlns="http://www.w3.org/2000/svg">
<path d="M326.669 1.65798C296.221 7.08133 272.834 30.2901 265.544 62.2719C264.254 67.775 264.178 75.1125 263.95 160.53L263.646 252.807L259.318 250.095C248.156 242.917 230.692 238.611 217.1 239.568C187.563 241.641 163.721 259.905 152.559 289.096C147.395 302.415 147.319 303.372 147.016 346.36L146.712 385.281H111.252C80.3481 385.281 75.5645 385.121 74.0458 384.004L72.3754 382.808V140.432H1L1.37966 390.465L3.4298 398.121C10.1877 424.042 27.8797 444.22 50.5831 452.115C62.4284 456.263 64.0229 456.422 106.772 456.821L146.788 457.22V469.662C146.788 489.919 148.838 500.527 155.52 514.883C164.176 533.545 181.489 548.46 201.458 554.362C209.583 556.834 226.744 557.392 235.779 555.638C265.848 549.656 288.703 525.969 294.93 494.146C296.221 487.606 296.372 482.741 296.372 441.269V395.489L290.905 400.434C281.794 408.729 277.693 409.606 275.415 403.863L274.201 400.992L272.074 404.9C269.569 409.606 264.33 414.79 262.203 414.79C260.077 414.79 258.179 411.281 258.179 407.293C258.255 403.465 264.33 386.078 265.848 385.52C266.38 385.281 267.215 385.44 267.671 385.919C268.278 386.557 267.595 389.827 265.241 397.643C262.735 405.778 262.128 408.649 262.811 409.367C264.861 411.52 272.53 399.238 276.327 387.514C278.377 381.133 279.288 379.618 280.883 380.256C282.325 380.814 282.249 383.446 280.427 389.428C278.605 395.569 278.377 401.87 280.047 402.508C281.338 403.066 284.375 400.833 291.665 394.133L296.372 389.747V317.489H326.821L323.936 321.636C316.798 332.004 312.47 341.734 310.42 352.182C308.825 360.237 307.914 376.986 309.129 376.188C309.66 375.869 311.862 373.078 314.14 369.888C320.443 361.115 324.087 358.961 329.479 360.875C330.845 361.354 331.681 360.636 334.87 356.01C336.92 353.059 340.868 347.875 343.526 344.526C351.574 334.556 353.852 330.489 360.838 313.022C364.559 303.85 368.811 293.323 370.33 289.654C372.228 285.028 372.911 282.715 372.304 282.077C371.924 281.679 371.544 280.562 371.544 279.764C371.544 278.648 371.165 278.409 370.254 278.807C369.494 279.126 365.85 280.163 362.053 281.2C353.321 283.593 331.756 291.488 298.878 304.249C264.557 317.568 267.898 315.893 266.152 320.838C265.317 323.151 261.9 332.403 258.559 341.415C249.903 364.863 244.663 380.415 225.605 438.318C210.115 485.533 200.547 524.294 202.597 531.153C202.825 532.11 203.736 532.828 204.572 532.828C206.546 532.828 206.394 534.981 204.344 535.699C200.168 537.055 197.662 528.122 199.105 516.877C200.244 508.423 215.734 450.919 219.682 440.71C220.213 439.355 221.58 435.048 222.795 431.14C223.934 427.152 225.605 421.808 226.44 419.256C227.351 416.624 227.958 414.471 227.807 414.311C227.503 413.992 214.898 424.281 209.355 429.545L203.888 434.649L203.585 441.667C203.281 447.569 202.825 449.563 200.775 454.189C197.738 460.809 193.638 465.833 191.208 465.833C190.221 465.833 188.17 464.557 186.576 463.042C184.07 460.569 183.842 459.931 184.222 457.379C184.754 454.109 189.765 445.575 194.169 440.551L197.054 437.121L194.625 429.704C191.815 421.489 191.891 419.575 195.004 415.747C196.371 414.072 197.358 413.514 198.421 413.753C200.775 414.391 201.003 415.508 199.256 418.06C198.421 419.256 197.662 420.931 197.662 421.729C197.662 423.962 199.029 428.667 200.244 430.342C201.231 431.778 201.534 431.618 206.394 426.913C210.798 422.686 215.734 418.618 228.338 408.808C230.692 407.054 231.603 404.502 242.765 370.127C245.423 361.992 250.358 347.556 253.851 337.986C257.268 328.415 259.925 320.44 259.774 320.2C258.483 318.924 202.066 346.36 185.057 356.648C176.401 361.832 172.605 363.268 172.605 361.354C172.605 360.875 173.44 359.599 174.427 358.563C177.54 355.293 209.735 338.943 236.463 327.059C250.434 320.838 262.203 315.335 262.659 314.857C263.039 314.298 264.254 311.746 265.241 309.114C268.126 301.378 282.629 270.433 283.388 270.433C285.059 270.433 286.501 271.47 286.501 272.746C286.501 273.543 285.135 276.893 283.388 280.323C280.655 285.826 276.099 296.593 271.999 307.439C270.556 311.108 270.556 311.268 271.847 310.869C272.606 310.63 289.463 304.249 309.281 296.752C347.246 282.396 372.152 273.623 374.885 273.623C376.1 273.623 377.011 272.586 378.302 269.795C381.795 262.218 392.122 244.353 394.324 242.12C396.45 239.967 396.678 239.887 397.893 241.163C399.032 242.359 399.107 242.997 398.196 247.464C395.159 262.936 384.529 285.906 367.216 314.219C360.307 325.544 354.156 338.065 349.145 350.906C346.107 358.882 344.361 364.225 336.464 390.066C333.579 399.477 333.047 400.833 331.681 400.594C330.845 400.434 329.858 400.035 329.554 399.636C329.175 399.317 329.782 395.489 330.921 391.182C333.579 380.814 341.02 356.808 342.463 353.857C344.437 349.789 342.083 352.501 335.325 361.992C327.352 373.237 315.963 387.673 311.711 392.06L308.521 395.25V607H379.897V519.269H387.49V607H458.182L457.726 356.17L456.056 350.188C454.689 345.164 453.246 341.016 449.981 332.802C449.678 332.084 454.082 331.845 470.559 331.845H491.516V90.1863H531V16.0139H384.832L381.415 13.5415C373.595 8.0384 362.205 3.25308 353.093 1.65798C347.702 0.780673 331.832 0.780673 326.669 1.65798ZM361.521 30.1306C361.825 33.241 357.649 46.4804 353.397 56.2903C350.284 63.229 339.881 82.2107 331.681 95.7691C323.86 108.689 317.102 125.677 308.901 153.352C306.016 163.162 305.181 165.156 303.966 165.156C303.206 165.156 302.295 164.837 302.067 164.359C301.384 163.242 308.142 138.677 312.166 127.91C313.001 125.598 313.381 123.923 312.926 124.162C312.47 124.481 309.509 128.389 306.319 132.855C292.348 152.555 283.768 162.365 281.414 161.408C276.934 159.573 288.552 135.407 295.841 131.26C298.195 129.984 299.03 129.825 300.928 130.622C303.206 131.499 303.206 131.499 309.433 123.125C322.341 105.978 322.797 105.18 327.58 93.3765C331.832 82.8488 333.883 77.6647 342.539 56.7688C345.652 49.1921 354.991 31.7257 357.345 28.9343C359.471 26.4618 361.218 27.0201 361.521 30.1306ZM524.926 42.7319C524.926 43.7687 505.943 62.9897 500.552 67.5358C488.327 77.7444 479.595 81.0942 476.254 76.7076C475.494 75.6708 474.811 73.5972 474.811 72.0818C474.811 70.5665 474.507 69.5297 474.052 69.8487C473.672 70.0879 470.559 73.996 467.142 78.4622C460.004 87.7138 457.65 88.9899 457.802 83.4071C457.878 79.0205 460.384 68.0143 461.599 66.9775C462.282 66.4192 463.042 66.4192 464.105 67.0572C465.471 67.775 465.623 68.4131 465.244 71.2843L464.712 74.634L468.281 71.045C470.255 69.0511 473.14 65.7812 474.659 63.6278C476.178 61.5541 477.848 59.8793 478.38 59.8793C480.126 59.8793 481.037 62.8302 480.126 66.1002C478.456 72.6401 479.898 75.5911 484.15 74.0757C489.845 72.0021 501.311 62.8302 513.915 50.3087C518.547 45.6829 522.572 42.3331 523.407 42.3331C524.242 42.3331 524.926 42.4926 524.926 42.7319ZM407.991 75.5113C408.903 78.0635 407.764 80.6156 405.713 80.6156C404.499 80.6156 404.195 80.0573 404.195 77.5849C404.195 75.9101 404.423 74.2352 404.726 73.9959C405.789 72.7996 407.308 73.5174 407.991 75.5113ZM437.529 77.5052C438.516 79.3396 438.44 80.4561 436.617 88.2721C435.479 93.0574 432.213 104.064 429.252 112.757C426.367 121.371 423.937 128.868 423.937 129.266C423.937 130.463 430.695 125.199 440.186 116.745C449.07 108.689 473.064 90.266 481.113 85.2414C488.858 80.2966 492.883 81.812 487.567 87.5543C484.986 90.3458 481.645 91.1433 481.645 88.9102C481.645 87.1555 478.987 88.9102 461.903 101.99C441.097 117.941 431.074 126.714 423.785 135.487L420.9 138.917V219.868C420.9 264.372 420.748 300.74 420.52 300.74C420.368 300.74 418.698 299.942 416.875 299.065L413.534 297.311L413.079 276.494C412.395 247.703 410.117 236.457 402.524 224.494C399.335 219.39 392.729 212.371 389.464 210.457C388.781 210.058 387.034 212.291 383.769 217.795C374.278 233.825 362.812 246.506 357.877 246.506C355.979 246.506 354.84 243.795 354.84 239.249C354.84 228.721 364.559 203.678 374.658 188.285C381.947 177.119 391.362 165.316 402.6 152.954L413.307 141.309V99.5974L409.054 103.665C403.132 109.407 398.5 112.518 395.463 113.076C393.109 113.475 392.729 113.315 391.97 111.242C391.514 109.966 391.287 107.732 391.438 106.297C391.59 104.941 391.59 103.745 391.438 103.745C390.907 103.745 377.239 115.548 375.645 117.383C374.354 118.898 373.898 120.653 373.67 125.279C373.291 131.659 370.709 138.438 366.609 143.542C364.179 146.573 362.964 146.653 359.623 143.941C356.13 141.15 356.206 138.119 360.231 131.579C361.977 128.788 364.407 125.279 365.698 123.923L368.052 121.291L365.318 112.199L355.295 122.886C342.311 136.843 337.072 140.352 335.097 136.524C331.832 129.984 341.855 110.763 351.119 105.659C352.941 104.702 355.599 104.781 355.599 105.898C355.599 108.131 346.639 121.69 342.007 126.475C338.287 130.223 337.148 132.457 338.97 132.457C340.413 132.457 346.183 127.272 355.447 117.782C361.37 111.64 363.951 108.45 363.951 107.174C363.951 104.622 367.748 100.315 369.494 100.953C371.089 101.671 371.165 103.984 369.646 105.34C369.039 105.898 368.507 107.015 368.507 107.812C368.507 109.966 370.861 115.708 371.696 115.708C372.152 115.708 374.278 113.953 376.556 111.8C378.834 109.647 383.466 105.659 386.883 102.947C390.299 100.235 394.855 96.1679 396.905 93.855L400.702 89.7875L401.006 92.0206C401.158 93.4562 400.322 96.0084 398.652 99.1986C395.691 104.941 395.007 107.174 395.842 108.61C396.678 109.966 398.652 108.53 406.852 100.873C412.168 95.9286 413.307 94.4133 413.307 92.4992C413.307 90.5053 413.61 90.1863 415.509 90.1863C417.331 90.1863 418.698 89.0697 422.95 84.0451C430.847 74.7935 435.099 72.8794 437.529 77.5052ZM459.625 313.022C459.625 314.857 450.361 323.231 443.679 327.378C437.529 331.206 429.1 334.955 422.646 336.63C419.761 337.427 419.153 337.986 417.331 341.894C415.053 346.759 408.295 353.857 405.106 354.734C402.145 355.452 400.398 352.74 400.398 347.237V342.851L391.514 352.342C377.771 366.937 370.254 371.323 367.292 366.538C365.546 363.747 366.229 358.802 369.191 352.023C371.924 346.041 374.885 342.213 377.011 342.213C379.062 342.213 378.758 343.489 374.506 352.262C371.772 357.924 370.785 360.875 371.165 362.072C371.393 363.029 371.924 363.747 372.304 363.747C374.582 363.747 404.195 335.354 404.195 333.121C404.195 331.286 406.928 329.452 411.408 328.096C415.812 326.74 415.812 326.82 417.179 328.575C418.014 329.611 418.622 330.887 418.622 331.526C418.622 333.041 423.937 332.961 428.569 331.526C436.162 329.053 446.489 322.593 453.93 315.574C457.802 311.826 459.625 311.028 459.625 313.022ZM385.06 323.231C387.11 325.384 385.895 330.249 383.314 330.249C381.947 330.249 381.491 329.691 381.188 327.378C380.96 325.863 380.96 324.029 381.188 323.39C381.643 322.035 383.845 321.955 385.06 323.231Z" fill="#212121" fill-opacity="0.8"/>
<path d="M354.627 39.2137C351.745 43.5207 345.374 56.8405 344.009 61.4666C343.479 63.2213 341.431 68.4056 339.459 73.0317C335.743 81.6457 334.53 84.9956 335.136 84.9956C335.819 84.9956 347.043 63.6201 350.683 55.4846C354.627 46.7111 358.115 36.5019 357.432 35.8639C357.205 35.6246 355.916 37.14 354.627 39.2137ZM293.123 138.195C290.089 141.146 285.615 149.122 285.615 151.754C285.615 152.631 286.601 151.914 288.497 149.601C290.014 147.607 291.91 145.453 292.592 144.656C294.488 142.662 298.507 136.68 298.507 135.882C298.507 134.367 296.08 135.403 293.123 138.195ZM426.975 83.879C422.88 88.3455 420.756 92.1739 422.349 92.1739C423.562 92.1739 432.738 82.3635 432.738 81.0874C432.738 79.1732 430.236 80.3695 426.975 83.879ZM428.188 91.7751C426.747 93.2906 424.472 95.0452 423.107 95.5238L420.605 96.4809V110.12L420.68 123.679L423.714 114.108C428.037 100.549 431.298 89.5419 430.994 89.3026C430.843 89.1431 429.553 90.2597 428.188 91.7751ZM345.526 114.267C343.782 116.421 341.81 119.133 341.203 120.488L340.066 122.881L342.72 120.169C345.981 116.899 350.455 110.519 349.394 110.519C349.015 110.519 347.27 112.194 345.526 114.267ZM364.258 130.379C362.362 133.09 360.542 136.042 360.314 136.919C359.783 138.674 361.073 140.827 362.665 140.827C365.016 140.827 369.718 129.262 368.429 126.789C367.822 125.593 367.14 126.151 364.258 130.379ZM402.176 155.343C383.445 176.48 373.813 190.597 364.865 210.457C362.665 215.322 360.087 222.421 359.253 226.09C357.432 233.667 357.129 242.121 358.646 242.121C360.087 242.121 367.367 234.305 371.993 227.765C377.074 220.586 384.961 208.463 384.961 207.825C384.961 207.506 383.748 206.708 382.307 205.99C380.866 205.273 379.653 204.316 379.653 203.996C379.653 203.598 380.942 202.72 382.534 202.082C387.691 199.849 391.711 196.1 393.607 191.634C394.593 189.401 397.778 182.222 400.735 175.841C410.518 154.546 413.703 145.613 411.58 145.613C411.201 145.613 406.954 149.999 402.176 155.343ZM407.106 337.992C405.892 339.587 404.527 345.729 405.058 347.404C405.665 349.477 407.03 349.398 409.077 347.404C411.277 345.17 414.007 339.587 413.476 338.152C412.945 336.716 408.167 336.636 407.106 337.992ZM390.422 254.644C385.947 261.583 379.122 276.338 376.998 283.596C376.695 284.713 374.647 289.738 372.448 294.763C370.249 299.787 368.277 304.812 368.05 305.929C367.595 307.843 367.595 307.843 368.732 306.328C371.159 302.978 381.321 283.516 385.644 274.025C390.118 264.135 394.365 252.171 393.834 250.576C393.682 250.097 392.166 251.932 390.422 254.644ZM322.775 366.307C320.121 367.344 315.571 372.927 312.84 378.749C311.172 382.179 309.883 385.369 310.035 385.848C310.338 386.645 322.472 372.528 324.064 369.577C325.733 366.307 325.354 365.35 322.775 366.307ZM193.625 446.784C188.62 453.404 187.255 456.355 188.241 458.11C188.696 458.827 189.909 459.465 190.895 459.465C194.08 459.465 199.54 446.704 197.796 443.434C197.265 442.397 196.507 443.035 193.625 446.784Z" fill="#212121" fill-opacity="0.8"/>
<path d="M326.669 1.65798C296.221 7.08133 272.834 30.2901 265.544 62.2719C264.254 67.775 264.178 75.1125 263.95 160.53L263.646 252.807L259.318 250.095C248.156 242.917 230.692 238.611 217.1 239.568C187.563 241.641 163.721 259.905 152.559 289.096C147.395 302.415 147.319 303.372 147.016 346.36L146.712 385.281H111.252C80.3481 385.281 75.5645 385.121 74.0458 384.004L72.3754 382.808V140.432H1L1.37966 390.465L3.4298 398.121C10.1877 424.042 27.8797 444.22 50.5831 452.115C62.4284 456.263 64.0229 456.422 106.772 456.821L146.788 457.22V469.662C146.788 489.919 148.838 500.527 155.52 514.883C164.176 533.545 181.489 548.46 201.458 554.362C209.583 556.834 226.744 557.392 235.779 555.638C265.848 549.656 288.703 525.969 294.93 494.146C296.221 487.606 296.372 482.741 296.372 441.269V395.489L290.905 400.434C281.794 408.729 277.693 409.606 275.415 403.863L274.201 400.992L272.074 404.9C269.569 409.606 264.33 414.79 262.203 414.79C260.077 414.79 258.179 411.281 258.179 407.293C258.255 403.465 264.33 386.078 265.848 385.52C266.38 385.281 267.215 385.44 267.671 385.919C268.278 386.557 267.595 389.827 265.241 397.643C262.735 405.778 262.128 408.649 262.811 409.367C264.861 411.52 272.53 399.238 276.327 387.514C278.377 381.133 279.288 379.618 280.883 380.256C282.325 380.814 282.249 383.446 280.427 389.428C278.605 395.569 278.377 401.87 280.047 402.508C281.338 403.066 284.375 400.833 291.665 394.133L296.372 389.747V317.489H326.821L323.936 321.636C316.798 332.004 312.47 341.734 310.42 352.182C308.825 360.237 307.914 376.986 309.129 376.188C309.66 375.869 311.862 373.078 314.14 369.888C320.443 361.115 324.087 358.961 329.479 360.875C330.845 361.354 331.681 360.636 334.87 356.01C336.92 353.059 340.868 347.875 343.526 344.526C351.574 334.556 353.852 330.489 360.838 313.022C364.559 303.85 368.811 293.323 370.33 289.654C372.228 285.028 372.911 282.715 372.304 282.077C371.924 281.679 371.544 280.562 371.544 279.764C371.544 278.648 371.165 278.409 370.254 278.807C369.494 279.126 365.85 280.163 362.053 281.2C353.321 283.593 331.756 291.488 298.878 304.249C264.557 317.568 267.898 315.893 266.152 320.838C265.317 323.151 261.9 332.403 258.559 341.415C249.903 364.863 244.663 380.415 225.605 438.318C210.115 485.533 200.547 524.294 202.597 531.153C202.825 532.11 203.736 532.828 204.572 532.828C206.546 532.828 206.394 534.981 204.344 535.699C200.168 537.055 197.662 528.122 199.105 516.877C200.244 508.423 215.734 450.919 219.682 440.71C220.213 439.355 221.58 435.048 222.795 431.14C223.934 427.152 225.605 421.808 226.44 419.256C227.351 416.624 227.958 414.471 227.807 414.311C227.503 413.992 214.898 424.281 209.355 429.545L203.888 434.649L203.585 441.667C203.281 447.569 202.825 449.563 200.775 454.189C197.738 460.809 193.638 465.833 191.208 465.833C190.221 465.833 188.17 464.557 186.576 463.042C184.07 460.569 183.842 459.931 184.222 457.379C184.754 454.109 189.765 445.575 194.169 440.551L197.054 437.121L194.625 429.704C191.815 421.489 191.891 419.575 195.004 415.747C196.371 414.072 197.358 413.514 198.421 413.753C200.775 414.391 201.003 415.508 199.256 418.06C198.421 419.256 197.662 420.931 197.662 421.729C197.662 423.962 199.029 428.667 200.244 430.342C201.231 431.778 201.534 431.618 206.394 426.913C210.798 422.686 215.734 418.618 228.338 408.808C230.692 407.054 231.603 404.502 242.765 370.127C245.423 361.992 250.358 347.556 253.851 337.986C257.268 328.415 259.925 320.44 259.774 320.2C258.483 318.924 202.066 346.36 185.057 356.648C176.401 361.832 172.605 363.268 172.605 361.354C172.605 360.875 173.44 359.599 174.427 358.563C177.54 355.293 209.735 338.943 236.463 327.059C250.434 320.838 262.203 315.335 262.659 314.857C263.039 314.298 264.254 311.746 265.241 309.114C268.126 301.378 282.629 270.433 283.388 270.433C285.059 270.433 286.501 271.47 286.501 272.746C286.501 273.543 285.135 276.893 283.388 280.323C280.655 285.826 276.099 296.593 271.999 307.439C270.556 311.108 270.556 311.268 271.847 310.869C272.606 310.63 289.463 304.249 309.281 296.752C347.246 282.396 372.152 273.623 374.885 273.623C376.1 273.623 377.011 272.586 378.302 269.795C381.795 262.218 392.122 244.353 394.324 242.12C396.45 239.967 396.678 239.887 397.893 241.163C399.032 242.359 399.107 242.997 398.196 247.464C395.159 262.936 384.529 285.906 367.216 314.219C360.307 325.544 354.156 338.065 349.145 350.906C346.107 358.882 344.361 364.225 336.464 390.066C333.579 399.477 333.047 400.833 331.681 400.594C330.845 400.434 329.858 400.035 329.554 399.636C329.175 399.317 329.782 395.489 330.921 391.182C333.579 380.814 341.02 356.808 342.463 353.857C344.437 349.789 342.083 352.501 335.325 361.992C327.352 373.237 315.963 387.673 311.711 392.06L308.521 395.25V607H379.897V519.269H387.49V607H458.182L457.726 356.17L456.056 350.188C454.689 345.164 453.246 341.016 449.981 332.802C449.678 332.084 454.082 331.845 470.559 331.845H491.516V90.1863H531V16.0139H384.832L381.415 13.5415C373.595 8.0384 362.205 3.25308 353.093 1.65798C347.702 0.780673 331.832 0.780673 326.669 1.65798ZM361.521 30.1306C361.825 33.241 357.649 46.4804 353.397 56.2903C350.284 63.229 339.881 82.2107 331.681 95.7691C323.86 108.689 317.102 125.677 308.901 153.352C306.016 163.162 305.181 165.156 303.966 165.156C303.206 165.156 302.295 164.837 302.067 164.359C301.384 163.242 308.142 138.677 312.166 127.91C313.001 125.598 313.381 123.923 312.926 124.162C312.47 124.481 309.509 128.389 306.319 132.855C292.348 152.555 283.768 162.365 281.414 161.408C276.934 159.573 288.552 135.407 295.841 131.26C298.195 129.984 299.03 129.825 300.928 130.622C303.206 131.499 303.206 131.499 309.433 123.125C322.341 105.978 322.797 105.18 327.58 93.3765C331.832 82.8488 333.883 77.6647 342.539 56.7688C345.652 49.1921 354.991 31.7257 357.345 28.9343C359.471 26.4618 361.218 27.0201 361.521 30.1306ZM524.926 42.7319C524.926 43.7687 505.943 62.9897 500.552 67.5358C488.327 77.7444 479.595 81.0942 476.254 76.7076C475.494 75.6708 474.811 73.5972 474.811 72.0818C474.811 70.5665 474.507 69.5297 474.052 69.8487C473.672 70.0879 470.559 73.996 467.142 78.4622C460.004 87.7138 457.65 88.9899 457.802 83.4071C457.878 79.0205 460.384 68.0143 461.599 66.9775C462.282 66.4192 463.042 66.4192 464.105 67.0572C465.471 67.775 465.623 68.4131 465.244 71.2843L464.712 74.634L468.281 71.045C470.255 69.0511 473.14 65.7812 474.659 63.6278C476.178 61.5541 477.848 59.8793 478.38 59.8793C480.126 59.8793 481.037 62.8302 480.126 66.1002C478.456 72.6401 479.898 75.5911 484.15 74.0757C489.845 72.0021 501.311 62.8302 513.915 50.3087C518.547 45.6829 522.572 42.3331 523.407 42.3331C524.242 42.3331 524.926 42.4926 524.926 42.7319ZM407.991 75.5113C408.903 78.0635 407.764 80.6156 405.713 80.6156C404.499 80.6156 404.195 80.0573 404.195 77.5849C404.195 75.9101 404.423 74.2352 404.726 73.9959C405.789 72.7996 407.308 73.5174 407.991 75.5113ZM437.529 77.5052C438.516 79.3396 438.44 80.4561 436.617 88.2721C435.479 93.0574 432.213 104.064 429.252 112.757C426.367 121.371 423.937 128.868 423.937 129.266C423.937 130.463 430.695 125.199 440.186 116.745C449.07 108.689 473.064 90.266 481.113 85.2414C488.858 80.2966 492.883 81.812 487.567 87.5543C484.986 90.3458 481.645 91.1433 481.645 88.9102C481.645 87.1555 478.987 88.9102 461.903 101.99C441.097 117.941 431.074 126.714 423.785 135.487L420.9 138.917V219.868C420.9 264.372 420.748 300.74 420.52 300.74C420.368 300.74 418.698 299.942 416.875 299.065L413.534 297.311L413.079 276.494C412.395 247.703 410.117 236.457 402.524 224.494C399.335 219.39 392.729 212.371 389.464 210.457C388.781 210.058 387.034 212.291 383.769 217.795C374.278 233.825 362.812 246.506 357.877 246.506C355.979 246.506 354.84 243.795 354.84 239.249C354.84 228.721 364.559 203.678 374.658 188.285C381.947 177.119 391.362 165.316 402.6 152.954L413.307 141.309V99.5974L409.054 103.665C403.132 109.407 398.5 112.518 395.463 113.076C393.109 113.475 392.729 113.315 391.97 111.242C391.514 109.966 391.287 107.732 391.438 106.297C391.59 104.941 391.59 103.745 391.438 103.745C390.907 103.745 377.239 115.548 375.645 117.383C374.354 118.898 373.898 120.653 373.67 125.279C373.291 131.659 370.709 138.438 366.609 143.542C364.179 146.573 362.964 146.653 359.623 143.941C356.13 141.15 356.206 138.119 360.231 131.579C361.977 128.788 364.407 125.279 365.698 123.923L368.052 121.291L365.318 112.199L355.295 122.886C342.311 136.843 337.072 140.352 335.097 136.524C331.832 129.984 341.855 110.763 351.119 105.659C352.941 104.702 355.599 104.781 355.599 105.898C355.599 108.131 346.639 121.69 342.007 126.475C338.287 130.223 337.148 132.457 338.97 132.457C340.413 132.457 346.183 127.272 355.447 117.782C361.37 111.64 363.951 108.45 363.951 107.174C363.951 104.622 367.748 100.315 369.494 100.953C371.089 101.671 371.165 103.984 369.646 105.34C369.039 105.898 368.507 107.015 368.507 107.812C368.507 109.966 370.861 115.708 371.696 115.708C372.152 115.708 374.278 113.953 376.556 111.8C378.834 109.647 383.466 105.659 386.883 102.947C390.299 100.235 394.855 96.1679 396.905 93.855L400.702 89.7875L401.006 92.0206C401.158 93.4562 400.322 96.0084 398.652 99.1986C395.691 104.941 395.007 107.174 395.842 108.61C396.678 109.966 398.652 108.53 406.852 100.873C412.168 95.9286 413.307 94.4133 413.307 92.4992C413.307 90.5053 413.61 90.1863 415.509 90.1863C417.331 90.1863 418.698 89.0697 422.95 84.0451C430.847 74.7935 435.099 72.8794 437.529 77.5052ZM459.625 313.022C459.625 314.857 450.361 323.231 443.679 327.378C437.529 331.206 429.1 334.955 422.646 336.63C419.761 337.427 419.153 337.986 417.331 341.894C415.053 346.759 408.295 353.857 405.106 354.734C402.145 355.452 400.398 352.74 400.398 347.237V342.851L391.514 352.342C377.771 366.937 370.254 371.323 367.292 366.538C365.546 363.747 366.229 358.802 369.191 352.023C371.924 346.041 374.885 342.213 377.011 342.213C379.062 342.213 378.758 343.489 374.506 352.262C371.772 357.924 370.785 360.875 371.165 362.072C371.393 363.029 371.924 363.747 372.304 363.747C374.582 363.747 404.195 335.354 404.195 333.121C404.195 331.286 406.928 329.452 411.408 328.096C415.812 326.74 415.812 326.82 417.179 328.575C418.014 329.611 418.622 330.887 418.622 331.526C418.622 333.041 423.937 332.961 428.569 331.526C436.162 329.053 446.489 322.593 453.93 315.574C457.802 311.826 459.625 311.028 459.625 313.022ZM385.06 323.231C387.11 325.384 385.895 330.249 383.314 330.249C381.947 330.249 381.491 329.691 381.188 327.378C380.96 325.863 380.96 324.029 381.188 323.39C381.643 322.035 383.845 321.955 385.06 323.231Z" stroke="#212121" stroke-opacity="0.8"/>
<path d="M354.627 39.2137C351.745 43.5207 345.374 56.8405 344.009 61.4666C343.479 63.2213 341.431 68.4056 339.459 73.0317C335.743 81.6457 334.53 84.9956 335.136 84.9956C335.819 84.9956 347.043 63.6201 350.683 55.4846C354.627 46.7111 358.115 36.5019 357.432 35.8639C357.205 35.6246 355.916 37.14 354.627 39.2137ZM293.123 138.195C290.089 141.146 285.615 149.122 285.615 151.754C285.615 152.631 286.601 151.914 288.497 149.601C290.014 147.607 291.91 145.453 292.592 144.656C294.488 142.662 298.507 136.68 298.507 135.882C298.507 134.367 296.08 135.403 293.123 138.195ZM426.975 83.879C422.88 88.3455 420.756 92.1739 422.349 92.1739C423.562 92.1739 432.738 82.3635 432.738 81.0874C432.738 79.1732 430.236 80.3695 426.975 83.879ZM428.188 91.7751C426.747 93.2906 424.472 95.0452 423.107 95.5238L420.605 96.4809V110.12L420.68 123.679L423.714 114.108C428.037 100.549 431.298 89.5419 430.994 89.3026C430.843 89.1431 429.553 90.2597 428.188 91.7751ZM345.526 114.267C343.782 116.421 341.81 119.133 341.203 120.488L340.066 122.881L342.72 120.169C345.981 116.899 350.455 110.519 349.394 110.519C349.015 110.519 347.27 112.194 345.526 114.267ZM364.258 130.379C362.362 133.09 360.542 136.042 360.314 136.919C359.783 138.674 361.073 140.827 362.665 140.827C365.016 140.827 369.718 129.262 368.429 126.789C367.822 125.593 367.14 126.151 364.258 130.379ZM402.176 155.343C383.445 176.48 373.813 190.597 364.865 210.457C362.665 215.322 360.087 222.421 359.253 226.09C357.432 233.667 357.129 242.121 358.646 242.121C360.087 242.121 367.367 234.305 371.993 227.765C377.074 220.586 384.961 208.463 384.961 207.825C384.961 207.506 383.748 206.708 382.307 205.99C380.866 205.273 379.653 204.316 379.653 203.996C379.653 203.598 380.942 202.72 382.534 202.082C387.691 199.849 391.711 196.1 393.607 191.634C394.593 189.401 397.778 182.222 400.735 175.841C410.518 154.546 413.703 145.613 411.58 145.613C411.201 145.613 406.954 149.999 402.176 155.343ZM407.106 337.992C405.892 339.587 404.527 345.729 405.058 347.404C405.665 349.477 407.03 349.398 409.077 347.404C411.277 345.17 414.007 339.587 413.476 338.152C412.945 336.716 408.167 336.636 407.106 337.992ZM390.422 254.644C385.947 261.583 379.122 276.338 376.998 283.596C376.695 284.713 374.647 289.738 372.448 294.763C370.249 299.787 368.277 304.812 368.05 305.929C367.595 307.843 367.595 307.843 368.732 306.328C371.159 302.978 381.321 283.516 385.644 274.025C390.118 264.135 394.365 252.171 393.834 250.576C393.682 250.097 392.166 251.932 390.422 254.644ZM322.775 366.307C320.121 367.344 315.571 372.927 312.84 378.749C311.172 382.179 309.883 385.369 310.035 385.848C310.338 386.645 322.472 372.528 324.064 369.577C325.733 366.307 325.354 365.35 322.775 366.307ZM193.625 446.784C188.62 453.404 187.255 456.355 188.241 458.11C188.696 458.827 189.909 459.465 190.895 459.465C194.08 459.465 199.54 446.704 197.796 443.434C197.265 442.397 196.507 443.035 193.625 446.784Z" stroke="#212121" stroke-opacity="0.8"/>
</svg>
