<svg width="64" height="52" viewBox="0 0 64 52" fill="currentColor" xmlns="http://www.w3.org/2000/svg">
<g clip-path="url(#clip0_47_225)">
<path fill-rule="evenodd" clip-rule="evenodd" d="M60 25.9936C60 25.571 59.7893 25.1656 59.4142 24.8667C59.0391 24.5679 58.5304 24.4 58 24.4L10.828 24.4L23.416 14.3725C23.7916 14.0732 24.0025 13.6674 24.0025 13.2442C24.0025 12.821 23.7916 12.4151 23.416 12.1158C23.0405 11.8166 22.5311 11.6485 22 11.6485C21.4689 11.6485 20.9596 11.8166 20.584 12.1158L4.58401 24.8653C4.39776 25.0133 4.24999 25.1892 4.14916 25.3828C4.04833 25.5764 3.99643 25.784 3.99643 25.9936C3.99643 26.2033 4.04833 26.4108 4.14916 26.6044C4.24999 26.7981 4.39776 26.9739 4.58401 27.122L20.584 39.8714C20.9595 40.1707 21.4689 40.3388 22 40.3388C22.5311 40.3388 23.0405 40.1707 23.416 39.8714C23.7915 39.5722 24.0025 39.1663 24.0025 38.7431C24.0025 38.3199 23.7915 37.914 23.416 37.6148L10.828 27.5873L58 27.5873C58.5304 27.5873 59.0391 27.4194 59.4142 27.1205C59.7893 26.8217 60 26.4163 60 25.9936Z" fill="#424D79"/>
</g>
<defs>
<clipPath id="clip0_47_225">
<rect width="50.9979" height="64" fill="currentColor" transform="matrix(5.48558e-08 -1 -1 -3.48311e-08 64 51.4926)"/>
</clipPath>
</defs>
</svg>
