<svg viewBox="0 0 105 79" fill="none" xmlns="http://www.w3.org/2000/svg">
<path d="M46.952 56.6377C46.952 59.6137 46.376 62.4457 45.224 65.1337C44.168 67.8217 42.632 70.1737 40.616 72.1897C38.6 74.2057 36.2 75.8377 33.416 77.0857C30.632 78.2377 27.56 78.8137 24.2 78.8137C20.936 78.8137 17.864 78.2377 14.984 77.0857C12.104 75.8377 9.56 74.2057 7.352 72.1897C5.24 70.1737 3.56 67.8217 2.312 65.1337C1.16 62.4457 0.584001 59.6137 0.584001 56.6377C0.584001 53.1817 0.920001 49.3417 1.592 45.1177C2.264 40.7977 3.56 36.2857 5.48 31.5817C7.4 26.7817 10.088 21.8377 13.544 16.7497C17.096 11.5657 21.752 6.28566 27.512 0.90966L42.2 9.26166C41.144 10.9897 40.04 12.9577 38.888 15.1657C37.832 17.3737 36.824 19.7257 35.864 22.2217C35 24.6217 34.232 27.0697 33.56 29.5657C32.888 32.0617 32.408 34.4617 32.12 36.7657C34.04 37.5337 35.864 38.4457 37.592 39.5017C39.416 40.5577 41 41.8537 42.344 43.3897C43.688 44.9257 44.792 46.7977 45.656 49.0057C46.52 51.1177 46.952 53.6617 46.952 56.6377ZM104.552 56.6377C104.552 59.6137 103.976 62.4457 102.824 65.1337C101.768 67.8217 100.232 70.1737 98.216 72.1897C96.2 74.2057 93.8 75.8377 91.016 77.0857C88.232 78.2377 85.16 78.8137 81.8 78.8137C78.536 78.8137 75.464 78.2377 72.584 77.0857C69.704 75.8377 67.16 74.2057 64.952 72.1897C62.84 70.1737 61.16 67.8217 59.912 65.1337C58.76 62.4457 58.184 59.6137 58.184 56.6377C58.184 53.1817 58.52 49.3417 59.192 45.1177C59.864 40.7977 61.16 36.2857 63.08 31.5817C65 26.7817 67.688 21.8377 71.144 16.7497C74.696 11.5657 79.352 6.28566 85.112 0.90966L99.8 9.26166C98.744 10.9897 97.64 12.9577 96.488 15.1657C95.432 17.3737 94.424 19.7257 93.464 22.2217C92.6 24.6217 91.832 27.0697 91.16 29.5657C90.488 32.0617 90.008 34.4617 89.72 36.7657C91.64 37.5337 93.464 38.4457 95.192 39.5017C97.016 40.5577 98.6 41.8537 99.944 43.3897C101.288 44.9257 102.392 46.7977 103.256 49.0057C104.12 51.1177 104.552 53.6617 104.552 56.6377Z" fill="#DFDFDF" fill-opacity="0.5"/>
</svg>
