<svg width="64" height="52" fill="none" xmlns="http://www.w3.org/2000/svg"><g clip-path="url(#a)"><path fill-rule="evenodd" clip-rule="evenodd" d="M4 25.994c0-.423.21-.828.586-1.127.375-.3.884-.467 1.414-.467h47.172L40.584 14.373c-.376-.3-.587-.706-.587-1.129 0-.423.211-.829.587-1.128.375-.3.885-.467 1.416-.467.531 0 1.04.168 1.416.467l16 12.75c.186.147.334.323.435.517.1.193.153.401.153.61 0 .21-.052.418-.153.611-.101.194-.249.37-.435.518l-16 12.75c-.375.299-.885.467-1.416.467-.531 0-1.04-.168-1.416-.468-.376-.299-.587-.705-.587-1.128 0-.423.212-.829.587-1.128l12.588-10.028H6c-.53 0-1.04-.168-1.414-.466-.375-.3-.586-.705-.586-1.127Z" fill="#424D79"/></g><defs><clipPath id="a"><path fill="#fff" transform="rotate(-90 25.746 25.746)" d="M0 0h50.998v64H0z"/></clipPath></defs></svg>